<svg width="12" height="12" viewBox="0 0 12 12" fill="none" xmlns="http://www.w3.org/2000/svg">
<path d="M11.3 7.03988V11.0388H8.95918V7.28372C8.95918 6.35715 8.61781 5.72318 7.78878 5.72318C7.15481 5.72318 6.76467 6.16208 6.61837 6.55221C6.56961 6.69852 6.52084 6.89358 6.52084 7.13742V11.0388H4.18003C4.18003 11.0388 4.2288 4.69908 4.18003 4.06511H6.52084V5.04044C6.81344 4.55278 7.39864 3.87004 8.61781 3.87004C10.1296 3.87004 11.3 4.89414 11.3 7.03988ZM1.74169 0.700195C0.961421 0.700195 0.424988 1.23663 0.424988 1.91937C0.424988 2.6021 0.912655 3.13854 1.69292 3.13854C2.52196 3.13854 3.00963 2.6021 3.00963 1.91937C3.0584 1.18786 2.57073 0.700195 1.74169 0.700195ZM0.571288 11.0388H2.91209V4.06511H0.571288V11.0388Z" fill="white"/>
</svg>
