<svg width="788" height="823" viewBox="0 0 788 823" fill="none" xmlns="http://www.w3.org/2000/svg">
<path d="M641.339 293.476C595.109 292.018 549.109 291.422 502.237 291.059C500.11 279.63 499.087 268.828 496.318 258.494C492.626 244.716 484.801 232.968 476.795 224.037C460.371 208.132 441.249 203.102 419.509 198.775C382.83 191.066 353.565 197.062 346.351 198.071C331.282 201.186 316.444 205.162 301.937 217.356C295.878 222.672 281.371 234.866 279.003 253.96C276.174 271.332 284.461 284.803 287.591 289.502C295.647 302.111 305.81 308.618 312.431 312.382C344.204 329.712 374.673 331.701 423.492 346.31C468.357 360.132 515.972 366.756 558.319 388.637C697.27 460.319 667.182 630.828 563.355 693.722C513.393 723.723 458.585 735.64 402.112 737.85C332.496 739.89 264.064 732.382 203.367 697.881C171.363 679.69 146.523 656.81 129.949 629.869C123.458 619.609 100.574 579.591 102.259 526.529C102.39 520.033 102.751 514.398 103.573 510.486C150.446 510.849 196.676 512.306 243.548 512.669C243.056 524.799 242.253 546.243 254.594 567.858C273.475 603.41 308.92 616.988 330.018 622.41C373.961 632.788 418.857 632.757 461.987 615.662C496.85 602.629 515.881 568.916 507.344 537.053C500.01 513.175 480.326 499.066 457.663 491.294C413.439 476.377 369.035 464.277 324.4 451.316C286.798 440.162 248.323 429.243 214.985 409.563C157.368 376.083 131.073 326.826 136.972 261.558C143.593 185.022 189.994 134.746 262.108 107.116C352.732 71.7575 444.55 75.7678 532.225 113.193C565.051 127.472 590.945 147.301 609.676 171.818C643.596 218.108 642.964 268.119 642.653 277.433C641.65 284.162 641.288 289.797 641.339 293.476Z" fill="url(#paint0_linear_332_79)"/>
<path d="M673.879 284.993C625.801 283.477 577.964 282.857 529.218 282.48C527.006 270.594 525.942 259.36 523.063 248.613C519.223 234.284 511.085 222.066 502.759 212.779C485.679 196.238 465.793 191.008 443.183 186.507C405.039 178.49 374.604 184.725 367.102 185.776C351.431 189.015 336 193.15 320.913 205.831C314.611 211.359 299.524 224.041 297.062 243.898C294.12 261.964 302.738 275.973 305.993 280.86C314.371 293.973 324.94 300.74 331.827 304.654C364.869 322.677 396.556 324.745 447.326 339.938C493.984 354.313 543.502 361.202 587.542 383.958C732.046 458.504 700.756 635.828 592.779 701.235C540.82 732.436 483.822 744.829 425.092 747.127C352.693 749.248 281.526 741.44 218.404 705.561C185.121 686.642 159.287 662.848 142.051 634.83C135.301 624.161 111.502 582.543 113.255 527.36C113.39 520.605 113.766 514.745 114.621 510.676C163.367 511.053 211.445 512.569 260.19 512.946C259.679 525.562 258.844 547.863 271.677 570.341C291.313 607.314 328.175 621.434 350.116 627.074C395.815 637.866 442.505 637.834 487.359 620.056C523.615 606.501 543.408 571.442 534.529 538.305C526.902 513.472 506.431 498.8 482.862 490.717C436.871 475.203 390.692 462.62 344.274 449.141C305.169 437.542 265.156 426.186 230.486 405.719C170.566 370.901 143.22 319.676 149.355 251.8C156.241 172.204 204.496 119.919 279.492 91.1851C373.738 54.4134 469.226 58.5839 560.404 97.505C594.543 112.355 621.471 132.976 640.951 158.472C676.227 206.613 675.569 258.623 675.246 268.309C674.202 275.307 673.827 281.167 673.879 284.993Z" fill="url(#paint1_linear_332_79)"/>
<defs>
<linearGradient id="paint0_linear_332_79" x1="31.2117" y1="223.414" x2="590.469" y2="99.2738" gradientUnits="userSpaceOnUse">
<stop stop-color="#E62025" stop-opacity="0.06"/>
<stop offset="1" stop-color="#BC1925" stop-opacity="0.08"/>
</linearGradient>
<linearGradient id="paint1_linear_332_79" x1="39.3677" y1="212.131" x2="620.977" y2="83.0294" gradientUnits="userSpaceOnUse">
<stop stop-color="#FF0006" stop-opacity="0.06"/>
<stop offset="1" stop-color="#BC1925" stop-opacity="0.31"/>
</linearGradient>
</defs>
</svg>
