<svg width="790" height="392" viewBox="0 0 790 392" fill="none" xmlns="http://www.w3.org/2000/svg">
<mask id="path-1-inside-1_139_164" fill="white">
<path d="M789.205 33.3516C779.524 134.1 731.585 227.303 655.258 293.773C578.932 360.244 480.026 394.922 378.903 390.67C277.779 386.417 182.134 343.558 111.657 270.914C41.1804 198.271 1.23573 101.373 0.0463441 0.166618L1.16684 0.153472C2.35286 101.073 42.1843 197.697 112.461 270.134C182.739 342.572 278.113 385.31 378.95 389.55C479.787 393.79 578.412 359.21 654.522 292.928C730.633 226.647 778.436 133.708 788.09 33.2444L789.205 33.3516Z"/>
</mask>
<path d="M789.205 33.3516C779.524 134.1 731.585 227.303 655.258 293.773C578.932 360.244 480.026 394.922 378.903 390.67C277.779 386.417 182.134 343.558 111.657 270.914C41.1804 198.271 1.23573 101.373 0.0463441 0.166618L1.16684 0.153472C2.35286 101.073 42.1843 197.697 112.461 270.134C182.739 342.572 278.113 385.31 378.95 389.55C479.787 393.79 578.412 359.21 654.522 292.928C730.633 226.647 778.436 133.708 788.09 33.2444L789.205 33.3516Z" stroke="#BC1925" stroke-opacity="0.35" stroke-width="2" mask="url(#path-1-inside-1_139_164)"/>
</svg>
