<svg width="203" height="47" viewBox="0 0 203 47" fill="none" xmlns="http://www.w3.org/2000/svg">
<g clip-path="url(#clip0_139_77)">
<path d="M21.3812 42.1772C33.1897 42.1772 42.7624 32.7355 42.7624 21.0886C42.7624 9.44168 33.1897 0 21.3812 0C9.57269 0 0 9.44168 0 21.0886C0 32.7355 9.57269 42.1772 21.3812 42.1772Z" fill="#E62025"/>
<path d="M30.9177 19.5609C29.4296 19.1115 27.9414 18.6922 26.4228 18.2728C26.4532 17.8834 26.514 17.5239 26.514 17.1644C26.514 16.6852 26.3621 16.2358 26.1799 15.8764C25.785 15.2173 25.208 14.8878 24.5398 14.5583C23.4161 13.9892 22.4139 13.9293 22.1709 13.8993C21.6546 13.8693 21.1383 13.8693 20.5612 14.1389C20.3183 14.2588 19.7412 14.5284 19.4982 15.1275C19.2553 15.6667 19.4071 16.1759 19.4679 16.3556C19.6197 16.8349 19.8931 17.1345 20.0753 17.3142C20.956 18.153 21.9279 18.4825 23.3857 19.3811C24.7221 20.2199 26.2102 20.8489 27.3947 21.9273C31.2822 25.4621 28.8221 30.7342 24.9043 31.8725C23.0213 32.4117 21.1383 32.3219 19.2856 31.9025C17.0078 31.3633 14.8515 30.5245 13.1811 28.877C12.3003 28.0083 11.6929 27.0497 11.3892 26.0312C11.2677 25.6418 10.8729 24.144 11.3892 22.4366C11.4499 22.2269 11.5107 22.0472 11.5714 21.9273C13.09 22.3467 14.5781 22.796 16.0967 23.2154C15.9752 23.6048 15.7626 24.2938 15.9752 25.1026C16.2789 26.4207 17.3115 27.1695 17.9493 27.529C19.2856 28.2479 20.7435 28.6374 22.2924 28.4576C23.5376 28.3378 24.4487 27.4092 24.4487 26.3008C24.4183 25.4621 23.902 24.833 23.2339 24.3837C21.9279 23.515 20.5916 22.7361 19.2553 21.9273C18.1315 21.2384 16.9774 20.5494 16.0663 19.6208C14.487 18.0331 14.0618 16.2059 14.8211 14.1389C15.7019 11.7126 17.6456 10.4844 20.2271 10.2148C23.4768 9.85532 26.4228 10.7839 28.9436 12.761C29.8851 13.5099 30.5533 14.3786 30.9481 15.3372C31.6467 17.1345 31.1911 18.7521 31.1 19.0516C31.0089 19.2613 30.9481 19.441 30.9177 19.5609Z" fill="white"/>
<path d="M141.711 42.8062L140.466 45.0529H139.767L143.625 38.253H144.384L145.477 45.0529H144.809L144.445 42.8062H141.711ZM144.384 42.2371C144.111 40.5596 143.928 39.4213 143.898 38.8821C143.594 39.4812 142.926 40.6794 142.045 42.2371H144.384Z" fill="#BC1925"/>
<path d="M150.458 43.645C150.094 44.5736 149.395 45.1727 148.332 45.1727C147.117 45.1727 146.571 44.3639 146.571 43.2556C146.571 41.7578 147.391 40.0803 149.091 40.0803C150.397 40.0803 150.792 41.0389 150.762 41.7278H150.154C150.124 41.0988 149.851 40.6195 149.061 40.6195C147.816 40.6195 147.239 42.0274 147.239 43.1957C147.239 44.2141 147.725 44.6335 148.454 44.6335C149.061 44.6335 149.547 44.2441 149.851 43.645H150.458Z" fill="#BC1925"/>
<path d="M155.287 43.645C154.923 44.5736 154.224 45.1727 153.161 45.1727C151.946 45.1727 151.4 44.3639 151.4 43.2556C151.4 41.7578 152.22 40.0803 153.92 40.0803C155.226 40.0803 155.621 41.0389 155.591 41.7278H154.983C154.953 41.0988 154.68 40.6195 153.89 40.6195C152.645 40.6195 152.068 42.0274 152.068 43.1957C152.068 44.2141 152.554 44.6335 153.283 44.6335C153.89 44.6335 154.376 44.2441 154.68 43.645H155.287Z" fill="#BC1925"/>
<path d="M156.927 42.6565C156.897 42.8961 156.866 43.0159 156.866 43.1957C156.866 44.1243 157.352 44.6036 158.081 44.6036C158.871 44.6036 159.235 44.1542 159.509 43.7049H160.146C159.812 44.4838 159.205 45.1428 157.99 45.1428C156.775 45.1428 156.229 44.334 156.229 43.2256C156.229 41.8177 157.018 40.0504 158.78 40.0504C160.055 40.0504 160.48 40.8891 160.48 41.7578C160.48 42.0274 160.45 42.327 160.359 42.6565H156.927ZM159.843 42.1472C159.873 41.9975 159.873 41.8776 159.873 41.7279C159.873 40.979 159.509 40.5896 158.749 40.5896C157.929 40.5896 157.322 41.1587 157.049 42.1472H159.843Z" fill="#BC1925"/>
<path d="M161.908 44.334L161.331 47H160.693L161.847 41.608C161.999 40.949 162.09 40.4398 162.151 40.1402H162.758C162.758 40.26 162.667 40.7393 162.607 41.0688C162.971 40.4697 163.548 40.0504 164.368 40.0504C165.37 40.0504 165.947 40.7693 165.947 41.8776C165.947 43.4952 165.036 45.1428 163.366 45.1428C162.485 45.1428 162.06 44.7234 161.908 44.334ZM165.279 41.9375C165.279 41.0688 164.884 40.6195 164.155 40.6195C163.153 40.6195 162.455 41.638 162.242 42.6265C161.999 43.7948 162.303 44.6036 163.396 44.6036C164.672 44.6036 165.279 43.1058 165.279 41.9375Z" fill="#BC1925"/>
<path d="M166.919 40.1402H167.77L168.073 38.7024H168.711L168.407 40.1402H169.501L169.379 40.6794H168.286L167.618 43.8247C167.496 44.334 167.527 44.5437 167.982 44.5437C168.134 44.5437 168.347 44.5437 168.498 44.4838L168.377 44.993C168.164 45.0529 167.952 45.0829 167.77 45.0829C167.071 45.0829 166.798 44.7833 166.98 44.0045L167.709 40.6495H166.858L166.919 40.1402Z" fill="#BC1925"/>
<path d="M170.138 42.6565C170.108 42.8961 170.078 43.0159 170.078 43.1957C170.078 44.1243 170.564 44.6036 171.293 44.6036C172.082 44.6036 172.447 44.1542 172.72 43.7049H173.358C173.024 44.4838 172.416 45.1428 171.201 45.1428C169.987 45.1428 169.44 44.334 169.44 43.2256C169.44 41.8177 170.23 40.0504 171.991 40.0504C173.267 40.0504 173.692 40.8891 173.692 41.7578C173.692 42.0274 173.662 42.327 173.57 42.6565H170.138ZM173.084 42.1472C173.115 41.9975 173.115 41.8776 173.115 41.7279C173.115 40.979 172.75 40.5896 171.991 40.5896C171.171 40.5896 170.564 41.1587 170.29 42.1472H173.084Z" fill="#BC1925"/>
<path d="M179.797 37.8936L178.551 43.6749C178.46 44.1542 178.339 44.6036 178.278 45.0529H177.671C177.671 44.9331 177.762 44.5437 177.822 44.2141C177.488 44.7533 177.002 45.1727 176.091 45.1727C175.028 45.1727 174.512 44.3639 174.512 43.2855C174.512 41.8776 175.362 40.0803 177.094 40.0803C177.974 40.0803 178.43 40.5895 178.521 40.949L179.159 37.9235H179.797V37.8936ZM175.15 43.1957C175.15 44.1542 175.575 44.5736 176.273 44.5736C177.397 44.5736 177.974 43.5551 178.187 42.4468C178.43 41.3384 178.065 40.6195 177.033 40.6195C175.818 40.6195 175.15 42.0574 175.15 43.1957Z" fill="#BC1925"/>
<path d="M184.777 37.8936L184.109 41.0089C184.474 40.4697 184.99 40.0503 185.84 40.0503C186.508 40.0503 187.42 40.3799 187.085 41.8776L186.417 45.0529H185.78L186.417 41.9974C186.6 41.0988 186.387 40.6195 185.597 40.6195C184.686 40.6195 184.018 41.3684 183.805 42.3869L183.228 45.0529H182.591L184.139 37.8936H184.777Z" fill="#BC1925"/>
<path d="M188.756 42.6565C188.726 42.8961 188.695 43.0159 188.695 43.1957C188.695 44.1243 189.181 44.6036 189.91 44.6036C190.7 44.6036 191.064 44.1542 191.337 43.7049H191.975C191.641 44.4838 191.034 45.1428 189.819 45.1428C188.604 45.1428 188.057 44.334 188.057 43.2256C188.057 41.8177 188.847 40.0504 190.609 40.0504C191.884 40.0504 192.309 40.8891 192.309 41.7578C192.309 42.0274 192.279 42.327 192.188 42.6565H188.756ZM191.672 42.1472C191.702 41.9975 191.702 41.8776 191.702 41.7279C191.702 40.979 191.337 40.5896 190.578 40.5896C189.758 40.5896 189.151 41.1587 188.877 42.1472H191.672Z" fill="#BC1925"/>
<path d="M193.706 41.608C193.798 41.1287 193.919 40.6195 193.98 40.1702H194.587C194.587 40.29 194.496 40.8292 194.405 41.2486C194.769 40.5296 195.468 40.0504 196.197 40.0504L196.045 40.7094C195.073 40.7992 194.344 41.5781 194.101 42.6864L193.585 45.0529H192.947L193.706 41.608Z" fill="#BC1925"/>
<path d="M196.926 42.6565C196.895 42.8961 196.865 43.0159 196.865 43.1957C196.865 44.1243 197.351 44.6036 198.08 44.6036C198.869 44.6036 199.234 44.1542 199.507 43.7049H200.145C199.811 44.4838 199.204 45.1428 197.989 45.1428C196.774 45.1428 196.227 44.334 196.227 43.2256C196.227 41.8177 197.017 40.0504 198.778 40.0504C200.054 40.0504 200.479 40.8891 200.479 41.7578C200.479 42.0274 200.449 42.327 200.358 42.6565H196.926ZM199.872 42.1472C199.902 41.9975 199.902 41.8776 199.902 41.7279C199.902 40.979 199.538 40.5896 198.778 40.5896C197.958 40.5896 197.351 41.1587 197.078 42.1472H199.872Z" fill="#BC1925"/>
<path d="M56.5205 25.1625C56.6724 26.7801 57.6746 27.8885 59.8006 27.8885C61.471 27.8885 62.5036 27.3193 62.5036 25.8814C62.5036 24.5934 61.5621 23.9643 59.1931 23.1855C54.8501 21.7776 53.1493 20.13 53.1493 17.464C53.1493 13.8394 55.8523 11.0535 61.3191 11.0535C66.2696 11.0535 69.3371 13.3002 69.3978 17.1944H63.8703C63.8399 16.2658 63.4451 14.9777 61.228 14.9777C59.8917 14.9777 58.9198 15.5468 58.9198 16.7451C58.9198 17.7036 59.6487 18.2728 62.048 19.0516C66.5733 20.4895 68.4563 22.2868 68.4563 25.2224C68.4563 29.0268 65.6318 31.8126 59.5272 31.8126C53.939 31.8126 51.1752 29.2364 51.0537 25.1925H56.5205V25.1625Z" fill="white"/>
<path d="M71.4631 16.1759H73.5891L74.4698 12.2218H79.8151L78.9951 16.1759H81.607L80.787 19.8604H78.1751L76.7476 26.5105C76.5654 27.4092 76.6869 27.9184 77.841 27.9184C78.2358 27.9184 78.6003 27.8885 78.9951 27.8585L78.2662 31.3333C77.264 31.6329 75.8973 31.6628 74.9558 31.6628C71.2201 31.6628 70.6431 29.7157 71.2505 26.84L72.7387 19.8904H70.6431L71.4631 16.1759Z" fill="white"/>
<path d="M95.517 27.2594C95.1525 28.9968 94.7881 30.7642 94.7273 31.4232H89.5035C89.5339 30.9739 89.5946 30.3448 89.6554 29.8356C88.7746 30.854 87.6509 31.7527 85.1301 31.7527C82.3056 31.7527 80.8174 29.8955 80.8174 27.7686C80.8174 23.7846 84.0367 22.2868 88.1672 21.8974C89.3213 21.7776 90.5057 21.7776 91.3561 21.7476L91.508 21.0586C91.6902 20.0701 91.5991 19.1415 90.1109 19.1415C88.6835 19.1415 88.4405 19.9802 88.1368 20.6392H82.8219C83.4293 18.153 85.2212 15.8763 90.445 15.8763C95.2132 15.8763 97.6126 17.7935 96.7622 21.6577L95.517 27.2594ZM90.7183 24.7431C89.9287 24.7431 89.1998 24.803 88.6227 24.9229C86.9523 25.2224 86.4057 25.8814 86.4057 26.7801C86.4057 27.499 86.8612 28.0382 87.8331 28.0382C89.868 28.0382 90.3539 26.4506 90.6576 25.1326L90.7183 24.7431Z" fill="white"/>
<path d="M102.502 10.3646H107.969L106.42 17.464C107.392 16.5354 108.546 15.8464 110.581 15.8464C113.557 15.8464 115.44 17.9433 115.44 21.4181C115.44 26.0013 112.98 31.7527 107.24 31.7527C105.144 31.7527 104.173 30.9739 103.656 30.195C103.565 30.5844 103.413 31.0937 103.292 31.4232H97.9465C98.1895 30.3748 98.4932 28.9069 98.7969 27.6189L102.502 10.3646ZM109.882 21.8375C109.882 20.3996 109.305 19.7106 108.09 19.7106C106.511 19.7106 105.448 21.0886 104.841 24.1141C104.324 26.6603 104.75 27.9184 106.45 27.9184C108.85 27.9484 109.882 23.7846 109.882 21.8375Z" fill="white"/>
<path d="M116.321 31.4232L120.846 10.3945H126.313L121.788 31.4232H116.321Z" fill="white"/>
<path d="M131.507 24.9229C131.446 25.1925 131.415 25.4022 131.385 25.7017C131.324 27.0198 131.75 28.1581 133.147 28.1581C134.361 28.1581 134.969 27.4691 135.333 26.5704H140.831C139.919 29.2365 137.52 31.7527 132.752 31.7527C127.862 31.7527 125.918 28.877 125.918 25.3423C125.918 21.4481 128.166 15.8464 134.787 15.8464C139.676 15.8464 141.651 18.4825 141.651 21.9873C141.651 23.1256 141.468 24.0841 141.225 24.9229H131.507ZM136.427 21.9573C136.487 21.6578 136.518 21.4181 136.518 21.2084C136.518 20.1899 136.123 19.3512 134.787 19.3512C133.39 19.3512 132.57 20.3098 132.114 21.9573H136.427Z" fill="white"/>
<path d="M158.112 25.9414C157.261 29.2065 155.105 31.7228 149.82 31.7228C145.447 31.7228 143.291 29.2964 143.291 25.6718C143.291 21.1785 145.933 15.8464 152.189 15.8464C157.717 15.8464 159.144 19.3512 158.871 21.7476H153.556C153.677 20.4595 153.495 19.4411 152.068 19.4411C149.851 19.4411 148.848 23.6348 148.848 25.9713C148.848 27.529 149.425 28.2479 150.428 28.2479C151.521 28.2479 152.189 27.499 152.706 25.9713H158.112V25.9414Z" fill="white"/>
<path d="M176.425 22.4965C176.425 26.4806 174.117 31.7527 167.162 31.7527C162.181 31.7527 160.298 28.8171 160.298 25.3123C160.298 21.0586 163.032 15.8464 169.379 15.8464C173.783 15.8464 176.425 18.2728 176.425 22.4965ZM165.887 25.7616C165.887 27.3193 166.464 28.1281 167.618 28.1281C169.926 28.1281 170.867 23.6348 170.867 21.6578C170.867 20.2199 170.29 19.501 169.106 19.501C166.858 19.501 165.887 23.8145 165.887 25.7616Z" fill="white"/>
<path d="M180.617 16.1759H186.083L182.834 31.4232H177.367L180.617 16.1759ZM181.862 10.3646H187.329L186.478 14.3187H181.011L181.862 10.3646Z" fill="white"/>
<path d="M188.483 20.3697C188.877 18.4226 189.12 17.2843 189.333 16.1759H194.709C194.678 16.5953 194.557 17.4041 194.466 17.7935C195.195 16.9548 196.561 15.8464 198.93 15.8464C202.089 15.8464 203.638 17.7635 202.696 22.137L200.722 31.3933H195.286L197.26 22.167C197.594 20.6992 197.29 19.8904 196.075 19.8904C194.739 19.8904 193.828 20.849 193.372 23.0657L191.611 31.3933H186.144L188.483 20.3697Z" fill="white"/>
</g>
<defs>
<clipPath id="clip0_139_77">
<rect width="203" height="47" fill="white"/>
</clipPath>
</defs>
</svg>
