<svg width="15" height="15" viewBox="0 0 15 15" fill="none" xmlns="http://www.w3.org/2000/svg">
<path d="M7.5 1.56024C9.42169 1.56024 9.68374 1.56024 10.4699 1.56024C11.1687 1.56024 11.5181 1.73494 11.7801 1.82229C12.1295 1.99699 12.3916 2.08434 12.6536 2.34639C12.9157 2.60843 13.0904 2.87048 13.1777 3.21988C13.2651 3.48193 13.3524 3.83133 13.4398 4.53012C13.4398 5.31627 13.4398 5.49096 13.4398 7.5C13.4398 9.50904 13.4398 9.68374 13.4398 10.4699C13.4398 11.1687 13.2651 11.5181 13.1777 11.7801C13.003 12.1295 12.9157 12.3916 12.6536 12.6536C12.3916 12.9157 12.1295 13.0904 11.7801 13.1777C11.5181 13.2651 11.1687 13.3524 10.4699 13.4398C9.68374 13.4398 9.50904 13.4398 7.5 13.4398C5.49096 13.4398 5.31627 13.4398 4.53012 13.4398C3.83133 13.4398 3.48193 13.2651 3.21988 13.1777C2.87048 13.003 2.60843 12.9157 2.34639 12.6536C2.08434 12.3916 1.90964 12.1295 1.82229 11.7801C1.73494 11.5181 1.64759 11.1687 1.56024 10.4699C1.56024 9.68374 1.56024 9.50904 1.56024 7.5C1.56024 5.49096 1.56024 5.31627 1.56024 4.53012C1.56024 3.83133 1.73494 3.48193 1.82229 3.21988C1.99699 2.87048 2.08434 2.60843 2.34639 2.34639C2.60843 2.08434 2.87048 1.90964 3.21988 1.82229C3.48193 1.73494 3.83133 1.64759 4.53012 1.56024C5.31627 1.56024 5.57831 1.56024 7.5 1.56024ZM7.5 0.25C5.49096 0.25 5.31627 0.25 4.53012 0.25C3.74398 0.25 3.21988 0.424699 2.78313 0.599398C2.34639 0.774097 1.90964 1.03615 1.47289 1.47289C1.03615 1.90964 0.861446 2.25904 0.599398 2.78313C0.424699 3.21988 0.337349 3.74398 0.25 4.53012C0.25 5.31627 0.25 5.57831 0.25 7.5C0.25 9.50904 0.25 9.68374 0.25 10.4699C0.25 11.256 0.424699 11.7801 0.599398 12.2169C0.774097 12.6536 1.03615 13.0904 1.47289 13.5271C1.90964 13.9639 2.25904 14.1386 2.78313 14.4006C3.21988 14.5753 3.74398 14.6626 4.53012 14.75C5.31627 14.75 5.57831 14.75 7.5 14.75C9.42169 14.75 9.68374 14.75 10.4699 14.75C11.256 14.75 11.7801 14.5753 12.2169 14.4006C12.6536 14.2259 13.0904 13.9639 13.5271 13.5271C13.9639 13.0904 14.1386 12.741 14.4006 12.2169C14.5753 11.7801 14.6626 11.256 14.75 10.4699C14.75 9.68374 14.75 9.42169 14.75 7.5C14.75 5.57831 14.75 5.31627 14.75 4.53012C14.75 3.74398 14.5753 3.21988 14.4006 2.78313C14.2259 2.34639 13.9639 1.90964 13.5271 1.47289C13.0904 1.03615 12.741 0.861446 12.2169 0.599398C11.7801 0.424699 11.256 0.337349 10.4699 0.25C9.68374 0.25 9.50904 0.25 7.5 0.25Z" fill="white"/>
<path d="M7.5 3.74398C5.40361 3.74398 3.74398 5.40361 3.74398 7.5C3.74398 9.59639 5.40361 11.256 7.5 11.256C9.59639 11.256 11.256 9.59639 11.256 7.5C11.256 5.40361 9.59639 3.74398 7.5 3.74398ZM7.5 9.94578C6.18976 9.94578 5.05422 8.89759 5.05422 7.5C5.05422 6.18976 6.10241 5.05422 7.5 5.05422C8.81024 5.05422 9.94578 6.10241 9.94578 7.5C9.94578 8.81024 8.81024 9.94578 7.5 9.94578Z" fill="white"/>
<path d="M11.3434 4.53012C11.8258 4.53012 12.2169 4.13904 12.2169 3.65663C12.2169 3.17421 11.8258 2.78313 11.3434 2.78313C10.861 2.78313 10.4699 3.17421 10.4699 3.65663C10.4699 4.13904 10.861 4.53012 11.3434 4.53012Z" fill="white"/>
</svg>
