<svg width="16" height="12" viewBox="0 0 16 12" fill="none" xmlns="http://www.w3.org/2000/svg">
<path d="M15.185 1.8023C14.6775 2.0198 14.0975 2.1648 13.5175 2.2373C14.0975 1.8748 14.605 1.29481 14.8225 0.642307C14.2425 1.00481 13.6625 1.22231 12.9375 1.36731C12.43 0.787307 11.6325 0.424805 10.835 0.424805C9.24 0.424805 7.935 1.7298 7.935 3.3248C7.935 3.5423 7.935 3.7598 8.0075 3.9773C5.615 3.8323 3.44 2.6723 1.99 0.932302C1.7725 1.3673 1.6275 1.8748 1.6275 2.3823C1.6275 3.3973 2.135 4.2673 2.9325 4.7748C2.425 4.7748 1.99 4.6298 1.6275 4.4123C1.6275 5.7898 2.6425 7.0223 3.9475 7.2398C3.73 7.3123 3.44001 7.3123 3.15001 7.3123C2.93251 7.3123 2.7875 7.3123 2.57 7.2398C2.9325 8.3998 4.02001 9.2698 5.32501 9.2698C4.31001 10.0673 3.07751 10.5023 1.70001 10.5023C1.48251 10.5023 1.26501 10.5023 0.975006 10.4298C2.28001 11.2273 3.8025 11.7348 5.47 11.7348C10.835 11.7348 13.735 7.3123 13.735 3.4698V3.1073C14.315 2.8898 14.8225 2.3823 15.185 1.8023Z" fill="white"/>
</svg>
