<svg width="43" height="43" viewBox="0 0 43 43" fill="none" xmlns="http://www.w3.org/2000/svg">
<path d="M21.3812 42.1772C33.1897 42.1772 42.7624 32.7355 42.7624 21.0886C42.7624 9.44168 33.1897 0 21.3812 0C9.57269 0 0 9.44168 0 21.0886C0 32.7355 9.57269 42.1772 21.3812 42.1772Z" fill="#E62025"/>
<path d="M30.9177 19.5609C29.4296 19.1115 27.9414 18.6922 26.4228 18.2728C26.4532 17.8834 26.514 17.5239 26.514 17.1644C26.514 16.6852 26.3621 16.2358 26.1799 15.8764C25.785 15.2173 25.208 14.8878 24.5398 14.5583C23.4161 13.9892 22.4139 13.9293 22.1709 13.8993C21.6546 13.8693 21.1383 13.8693 20.5612 14.1389C20.3183 14.2588 19.7412 14.5284 19.4982 15.1275C19.2553 15.6667 19.4071 16.1759 19.4679 16.3556C19.6197 16.8349 19.8931 17.1345 20.0753 17.3142C20.956 18.153 21.9279 18.4825 23.3857 19.3811C24.7221 20.2199 26.2102 20.8489 27.3947 21.9273C31.2822 25.4621 28.8221 30.7342 24.9043 31.8725C23.0213 32.4117 21.1383 32.3219 19.2856 31.9025C17.0078 31.3633 14.8515 30.5245 13.1811 28.877C12.3003 28.0083 11.6929 27.0497 11.3892 26.0312C11.2677 25.6418 10.8729 24.144 11.3892 22.4366C11.4499 22.2269 11.5107 22.0472 11.5714 21.9273C13.09 22.3467 14.5781 22.796 16.0967 23.2154C15.9752 23.6048 15.7626 24.2938 15.9752 25.1026C16.2789 26.4207 17.3115 27.1695 17.9493 27.529C19.2856 28.2479 20.7435 28.6374 22.2924 28.4576C23.5376 28.3378 24.4487 27.4092 24.4487 26.3008C24.4183 25.4621 23.902 24.833 23.2339 24.3837C21.9279 23.515 20.5916 22.7361 19.2553 21.9273C18.1315 21.2384 16.9774 20.5494 16.0663 19.6208C14.487 18.0331 14.0618 16.2059 14.8211 14.1389C15.7019 11.7126 17.6456 10.4844 20.2271 10.2148C23.4768 9.85532 26.4228 10.7839 28.9436 12.761C29.8851 13.5099 30.5533 14.3786 30.9481 15.3372C31.6467 17.1345 31.1911 18.7521 31.1 19.0516C31.0089 19.2613 30.9481 19.441 30.9177 19.5609Z" fill="white"/>
</svg>
